<svg width="128" height="19" viewBox="0 0 128 19" fill="none" xmlns="http://www.w3.org/2000/svg">
<path d="M0.914219 12.36H7.46622C7.57822 12.696 7.90622 12.984 8.45022 13.224C8.99422 13.448 9.72222 13.624 10.6342 13.752C11.5622 13.864 12.6342 13.92 13.8502 13.92C15.0502 13.92 15.9942 13.888 16.6822 13.824C17.3862 13.744 17.8822 13.616 18.1702 13.44C18.4582 13.248 18.6022 12.992 18.6022 12.672C18.6022 12.368 18.3702 12.136 17.9062 11.976C17.4422 11.8 16.6182 11.68 15.4342 11.616C14.2502 11.552 12.5862 11.52 10.4422 11.52C8.84222 11.52 7.45822 11.448 6.29022 11.304C5.13822 11.144 4.18622 10.904 3.43422 10.584C2.69822 10.248 2.15422 9.832 1.80222 9.336C1.45022 8.824 1.27422 8.216 1.27422 7.512C1.27422 6.296 1.68222 5.296 2.49822 4.512C3.33022 3.712 4.57822 3.12 6.24222 2.736C7.92222 2.336 10.0182 2.136 12.5302 2.136C16.2102 2.136 19.0182 2.672 20.9542 3.744C22.9062 4.8 23.8822 6.328 23.8822 8.328H17.6662C17.5862 7.8 17.0902 7.4 16.1782 7.128C15.2662 6.84 13.9702 6.696 12.2902 6.696C10.6262 6.696 9.38622 6.792 8.57022 6.984C7.77022 7.176 7.37022 7.504 7.37022 7.968C7.37022 8.208 7.48222 8.4 7.70622 8.544C7.93022 8.688 8.31422 8.808 8.85822 8.904C9.41822 8.984 10.2022 9.04 11.2102 9.072C12.2182 9.104 13.4982 9.12 15.0502 9.12C16.7622 9.12 18.2182 9.208 19.4182 9.384C20.6182 9.544 21.5862 9.792 22.3222 10.128C23.0742 10.464 23.6182 10.896 23.9542 11.424C24.2902 11.936 24.4582 12.544 24.4582 13.248C24.4582 14.464 24.0742 15.456 23.3062 16.224C22.5382 16.992 21.3222 17.56 19.6582 17.928C17.9942 18.296 15.8182 18.48 13.1302 18.48C11.6102 18.48 10.2102 18.392 8.93022 18.216C7.66622 18.04 6.53822 17.784 5.54622 17.448C4.55422 17.096 3.71422 16.672 3.02622 16.176C2.33822 15.664 1.81022 15.096 1.44222 14.472C1.09022 13.832 0.914219 13.128 0.914219 12.36ZM37.6502 18.36C35.1062 18.36 32.9862 18.152 31.2902 17.736C29.6102 17.32 28.3462 16.656 27.4982 15.744C26.6662 14.832 26.2502 13.632 26.2502 12.144C26.2502 10.656 26.6662 9.456 27.4982 8.544C28.3462 7.616 29.6102 6.944 31.2902 6.528C32.9862 6.096 35.1062 5.88 37.6502 5.88C40.1782 5.88 42.2742 6.096 43.9382 6.528C45.6182 6.944 46.8742 7.616 47.7062 8.544C48.5382 9.456 48.9542 10.656 48.9542 12.144C48.9542 13.632 48.5382 14.832 47.7062 15.744C46.8742 16.656 45.6182 17.32 43.9382 17.736C42.2742 18.152 40.1782 18.36 37.6502 18.36ZM37.6502 14.88C38.8342 14.88 39.8262 14.784 40.6262 14.592C41.4262 14.384 42.0342 14.08 42.4502 13.68C42.8662 13.264 43.0742 12.752 43.0742 12.144C43.0742 11.536 42.8662 11.024 42.4502 10.608C42.0502 10.192 41.4502 9.88 40.6502 9.672C39.8502 9.464 38.8502 9.36 37.6502 9.36C36.4662 9.36 35.4582 9.464 34.6262 9.672C33.8102 9.88 33.1862 10.192 32.7542 10.608C32.3382 11.008 32.1302 11.52 32.1302 12.144C32.1302 12.752 32.3382 13.264 32.7542 13.68C33.1702 14.08 33.7862 14.384 34.6022 14.592C35.4342 14.784 36.4502 14.88 37.6502 14.88ZM50.8652 6.24H56.6252V18H50.8652V6.24ZM65.2652 5.88C66.2092 5.88 67.1212 5.984 68.0012 6.192C68.8812 6.384 69.6652 6.72 70.3532 7.2C71.0572 7.68 71.6172 8.336 72.0332 9.168C72.4492 10 72.6572 11.048 72.6572 12.312V18H66.8972V13.032C66.8972 11.832 66.5852 10.984 65.9612 10.488C65.3372 9.976 64.2092 9.72 62.5772 9.72C61.7132 9.72 60.8732 9.816 60.0572 10.008C59.2572 10.2 58.5372 10.432 57.8972 10.704C57.2572 10.96 56.7532 11.216 56.3852 11.472L56.3372 10.56C56.4012 10.272 56.6172 9.872 56.9852 9.36C57.3692 8.832 57.9212 8.304 58.6412 7.776C59.3612 7.248 60.2652 6.8 61.3532 6.432C62.4572 6.064 63.7612 5.88 65.2652 5.88ZM81.1543 0.0719991V3.672H75.0583V0.0719991H81.1543ZM75.2263 6.24H80.9863V18H75.2263V6.24ZM94.7205 15.84L91.9845 15.792L98.0325 6.24H104.392L96.0165 18H90.5925L82.6005 6.24H88.9365L94.7205 15.84ZM115.791 18.36C113.247 18.36 111.127 18.152 109.431 17.736C107.751 17.32 106.487 16.656 105.639 15.744C104.807 14.832 104.391 13.632 104.391 12.144C104.391 10.656 104.807 9.456 105.639 8.544C106.487 7.616 107.751 6.944 109.431 6.528C111.127 6.096 113.247 5.88 115.791 5.88C118.319 5.88 120.415 6.096 122.079 6.528C123.759 6.944 125.015 7.616 125.847 8.544C126.679 9.456 127.095 10.656 127.095 12.144C127.095 13.632 126.679 14.832 125.847 15.744C125.015 16.656 123.759 17.32 122.079 17.736C120.415 18.152 118.319 18.36 115.791 18.36ZM115.791 14.88C116.975 14.88 117.967 14.784 118.767 14.592C119.567 14.384 120.175 14.08 120.591 13.68C121.007 13.264 121.215 12.752 121.215 12.144C121.215 11.536 121.007 11.024 120.591 10.608C120.191 10.192 119.591 9.88 118.791 9.672C117.991 9.464 116.991 9.36 115.791 9.36C114.607 9.36 113.599 9.464 112.767 9.672C111.951 9.88 111.327 10.192 110.895 10.608C110.479 11.008 110.271 11.52 110.271 12.144C110.271 12.752 110.479 13.264 110.895 13.68C111.311 14.08 111.927 14.384 112.743 14.592C113.575 14.784 114.591 14.88 115.791 14.88Z" fill="black"/>
</svg>
