<svg width="195" height="23" viewBox="0 0 195 23" fill="none" xmlns="http://www.w3.org/2000/svg">
<path d="M0.184844 2.64H25.1448V7.2H0.184844V2.64ZM9.66484 6.888H15.6648V18H9.66484V6.888ZM26.9355 6.24H32.6955V18H26.9355V6.24ZM38.8875 10.68C37.8475 10.68 36.8955 10.776 36.0315 10.968C35.1675 11.16 34.4315 11.392 33.8235 11.664C33.2155 11.92 32.7595 12.176 32.4555 12.432L32.4075 11.28C32.4555 10.944 32.5835 10.552 32.7915 10.104C32.9995 9.64 33.2795 9.168 33.6315 8.688C33.9835 8.192 34.4155 7.736 34.9275 7.32C35.4395 6.888 36.0235 6.544 36.6795 6.288C37.3515 6.016 38.0875 5.88 38.8875 5.88V10.68ZM49.1709 18.336C47.4429 18.336 45.9069 18.096 44.5629 17.616C43.2189 17.12 42.1549 16.408 41.3709 15.48C40.6029 14.552 40.2189 13.432 40.2189 12.12C40.2189 10.744 40.6029 9.592 41.3709 8.664C42.1549 7.736 43.2189 7.04 44.5629 6.576C45.9069 6.112 47.4429 5.88 49.1709 5.88C51.0909 5.88 52.7469 6.144 54.1389 6.672C55.5469 7.184 56.6269 7.912 57.3789 8.856C58.1469 9.784 58.5309 10.872 58.5309 12.12C58.5309 13.048 58.3149 13.896 57.8829 14.664C57.4509 15.416 56.8269 16.072 56.0109 16.632C55.1949 17.176 54.2109 17.6 53.0589 17.904C51.9069 18.192 50.6109 18.336 49.1709 18.336ZM51.3309 14.688C52.5469 14.688 53.6589 14.616 54.6669 14.472C55.6909 14.312 56.5069 14.048 57.1149 13.68C57.7389 13.312 58.0509 12.792 58.0509 12.12C58.0509 11.432 57.7389 10.904 57.1149 10.536C56.5069 10.168 55.6909 9.912 54.6669 9.768C53.6589 9.624 52.5469 9.552 51.3309 9.552C49.6989 9.552 48.4349 9.768 47.5389 10.2C46.6429 10.616 46.1949 11.256 46.1949 12.12C46.1949 12.68 46.3949 13.152 46.7949 13.536C47.1949 13.92 47.7789 14.208 48.5469 14.4C49.3149 14.592 50.2429 14.688 51.3309 14.688ZM58.0509 6.24H63.8109V18H58.3869C58.3869 18 58.3549 17.816 58.2909 17.448C58.2429 17.08 58.1869 16.552 58.1229 15.864C58.0749 15.176 58.0509 14.368 58.0509 13.44V6.24ZM65.9823 6.24H71.7423V18H65.9823V6.24ZM80.3823 5.88C81.3263 5.88 82.2383 5.984 83.1183 6.192C83.9983 6.384 84.7823 6.72 85.4703 7.2C86.1743 7.68 86.7343 8.336 87.1503 9.168C87.5663 10 87.7743 11.048 87.7743 12.312V18H82.0143V13.032C82.0143 11.832 81.7023 10.984 81.0783 10.488C80.4543 9.976 79.3263 9.72 77.6943 9.72C76.8303 9.72 75.9903 9.816 75.1743 10.008C74.3743 10.2 73.6543 10.432 73.0143 10.704C72.3743 10.96 71.8703 11.216 71.5023 11.472L71.4543 10.56C71.5183 10.272 71.7343 9.872 72.1023 9.36C72.4863 8.832 73.0383 8.304 73.7583 7.776C74.4783 7.248 75.3823 6.8 76.4703 6.432C77.5743 6.064 78.8783 5.88 80.3823 5.88ZM89.8155 13.776H95.1195C95.3435 14.192 95.7675 14.48 96.3915 14.64C97.0315 14.8 97.9435 14.88 99.1275 14.88C100.039 14.88 100.711 14.832 101.143 14.736C101.591 14.64 101.879 14.512 102.007 14.352C102.151 14.192 102.223 14.024 102.223 13.848C102.223 13.576 102.071 13.392 101.767 13.296C101.479 13.184 100.983 13.12 100.279 13.104C99.5755 13.072 98.6075 13.056 97.3755 13.056C96.2075 13.056 95.1595 13.008 94.2315 12.912C93.3195 12.8 92.5435 12.632 91.9035 12.408C91.2635 12.168 90.7755 11.84 90.4395 11.424C90.1035 11.008 89.9355 10.488 89.9355 9.864C89.9355 9.096 90.1835 8.456 90.6795 7.944C91.1755 7.416 91.8475 7.008 92.6955 6.72C93.5435 6.416 94.5195 6.2 95.6235 6.072C96.7435 5.944 97.9115 5.88 99.1275 5.88C101.143 5.88 102.791 6.088 104.071 6.504C105.351 6.904 106.295 7.448 106.903 8.136C107.511 8.824 107.807 9.6 107.791 10.464H102.631C102.455 10.048 102.119 9.76 101.623 9.6C101.143 9.44 100.311 9.36 99.1275 9.36C98.0075 9.36 97.1915 9.448 96.6795 9.624C96.1835 9.784 95.9355 10.048 95.9355 10.416C95.9355 10.656 96.0555 10.84 96.2955 10.968C96.5515 11.08 97.0235 11.16 97.7115 11.208C98.4155 11.256 99.4395 11.28 100.783 11.28C101.711 11.28 102.615 11.312 103.495 11.376C104.391 11.44 105.191 11.576 105.895 11.784C106.615 11.992 107.183 12.312 107.599 12.744C108.015 13.176 108.223 13.768 108.223 14.52C108.223 15.432 107.847 16.176 107.095 16.752C106.359 17.312 105.311 17.72 103.951 17.976C102.591 18.232 100.983 18.36 99.1275 18.36C97.5115 18.36 96.1435 18.256 95.0235 18.048C93.9195 17.84 93.0155 17.568 92.3115 17.232C91.6075 16.88 91.0635 16.504 90.6795 16.104C90.3115 15.688 90.0635 15.28 89.9355 14.88C89.8235 14.464 89.7835 14.096 89.8155 13.776ZM110.379 1.44H116.139V18H110.379V1.44ZM130.731 6.24L121.227 12.84L121.347 9.72L131.547 18H124.251L116.235 11.304L123.099 6.24H130.731ZM132.756 6.24H138.516V18H132.756V6.24ZM144.708 10.68C143.668 10.68 142.716 10.776 141.852 10.968C140.988 11.16 140.252 11.392 139.644 11.664C139.036 11.92 138.58 12.176 138.276 12.432L138.228 11.28C138.276 10.944 138.404 10.552 138.612 10.104C138.82 9.64 139.1 9.168 139.452 8.688C139.804 8.192 140.236 7.736 140.748 7.32C141.26 6.888 141.844 6.544 142.5 6.288C143.172 6.016 143.908 5.88 144.708 5.88V10.68ZM152.615 0.0719991V3.672H146.519V0.0719991H152.615ZM146.687 6.24H152.447V18H146.687V6.24ZM169.661 18.36C168.221 18.36 166.925 18.216 165.773 17.928C164.621 17.624 163.637 17.2 162.821 16.656C162.005 16.096 161.381 15.432 160.949 14.664C160.517 13.896 160.301 13.048 160.301 12.12C160.301 11.192 160.517 10.352 160.949 9.6C161.381 8.832 162.005 8.176 162.821 7.632C163.637 7.072 164.621 6.648 165.773 6.36C166.925 6.056 168.221 5.904 169.661 5.904C171.389 5.904 172.925 6.152 174.269 6.648C175.629 7.128 176.693 7.832 177.461 8.76C178.229 9.688 178.613 10.808 178.613 12.12C178.613 13.496 178.229 14.648 177.461 15.576C176.693 16.504 175.629 17.2 174.269 17.664C172.925 18.128 171.389 18.36 169.661 18.36ZM167.501 14.688C168.589 14.688 169.517 14.592 170.285 14.4C171.053 14.208 171.637 13.928 172.037 13.56C172.437 13.176 172.637 12.696 172.637 12.12C172.637 11.272 172.189 10.632 171.293 10.2C170.397 9.768 169.133 9.552 167.501 9.552C166.285 9.552 165.165 9.624 164.141 9.768C163.133 9.912 162.317 10.176 161.693 10.56C161.085 10.928 160.781 11.448 160.781 12.12C160.781 12.792 161.085 13.32 161.693 13.704C162.317 14.072 163.133 14.328 164.141 14.472C165.165 14.616 166.285 14.688 167.501 14.688ZM155.021 6.24H160.445L160.781 10.8V22.8H155.021V6.24ZM179.945 6.24H194.057V9.84H179.945V6.24ZM184.121 2.64H189.881V18H184.121V2.64Z" fill="black"/>
</svg>
